<svg xmlns="http://www.w3.org/2000/svg" version="1.1" xmlns:xlink="http://www.w3.org/1999/xlink" xmlns:svgjs="http://svgjs.dev/svgjs" width="1500" height="1500" viewBox="0 0 1500 1500"><rect width="1500" height="1500" fill="#000000"></rect><g transform="matrix(0.6666666666666666,0,0,0.6666666666666666,250.87801313436694,315.685290148448)"><svg viewBox="0 0 284 247" data-background-color="#ffffff" preserveAspectRatio="xMidYMid meet" height="1304" width="1500" xmlns="http://www.w3.org/2000/svg" xmlns:xlink="http://www.w3.org/1999/xlink"><g id="tight-bounds" transform="matrix(1,0,0,1,-0.24935573016020385,-0.09999999999999432)"><svg viewBox="0 0 284.4987114603204 247.2" height="247.2" width="284.4987114603204"><g><svg viewBox="0 0 395.52 343.66603454243244" height="247.2" width="284.4987114603204"><g transform="matrix(1,0,0,1,0,181.36718230710875)"><svg viewBox="0 0 395.52 162.2988522353237" height="162.2988522353237" width="395.52"><g id="textblocktransform"><svg viewBox="0 0 395.52 162.2988522353237" height="162.2988522353237" width="395.52" id="textblock"><g><svg viewBox="0 0 395.52 112.05873902633678" height="112.05873902633678" width="395.52"><g transform="matrix(1,0,0,1,0,0)"><svg width="395.52" viewBox="2.2 -35 125.28 35.5" height="112.05873902633678" data-palette-color="#8bc53f"><path d="M8.45 0L2.2 0 2.2-34.05Q2.2-34.5 2.48-34.75 2.75-35 3.55-35L3.55-35 8.4-35Q10.85-35 12.7-34.25 14.55-33.5 15.75-31.73 16.95-29.95 17.57-26.9 18.2-23.85 18.2-19.3L18.2-19.3Q18.2-13.8 17.55-10.08 16.9-6.35 15.63-4.15 14.35-1.95 12.55-0.98 10.75 0 8.45 0L8.45 0ZM6.25-31.25L6.25-3.85 8.5-3.85Q9.5-3.85 10.4-4.4 11.3-4.95 12.03-6.58 12.75-8.2 13.18-11.35 13.6-14.5 13.6-19.7L13.6-19.7Q13.6-23.15 13.28-25.4 12.95-27.65 12.33-28.95 11.7-30.25 10.75-30.75 9.8-31.25 8.55-31.25L8.55-31.25 6.25-31.25ZM21.65 0L21.65 0 21.65-23.15Q21.65-24.1 22-24.48 22.35-24.85 23.25-24.93 24.15-25 25.8-25L25.8-25 25.8-0.8Q25.8-0.4 25.62-0.25 25.45-0.1 24.6-0.05 23.75 0 21.65 0ZM23.6-28.45L23.6-28.45Q22.65-28.5 22.1-29.18 21.55-29.85 21.55-31.6L21.55-31.6Q21.6-32.95 22.15-33.77 22.7-34.6 23.9-34.6L23.9-34.6Q25.05-34.6 25.5-33.95 25.95-33.3 25.9-31.7L25.9-31.7Q25.9-30.2 25.32-29.33 24.75-28.45 23.6-28.45ZM30.99 0L30.99 0 30.99-23.8Q31.99-24.25 33.34-24.63 34.7-25 36.14-25.25 37.59-25.5 38.95-25.5L38.95-25.5Q41.55-25.5 43.09-24.83 44.64-24.15 45.3-22.7 45.94-21.25 45.94-18.8L45.94-18.8 45.94-0.8Q45.94-0.4 45.74-0.25 45.55-0.1 44.7-0.05 43.84 0 41.74 0L41.74 0 41.74-17.6Q41.74-19.95 41.2-20.95 40.64-21.95 38.8-21.95L38.8-21.95Q37.95-21.95 36.89-21.75 35.84-21.55 35.05-21.05L35.05-21.05 35.05-0.8Q35.05-0.4 34.87-0.25 34.7-0.1 33.84-0.05 32.99 0 30.99 0ZM57.79 0.5L57.79 0.5Q56.09 0.5 54.62 0.03 53.14-0.45 52.07-1.7 50.99-2.95 50.42-5.25 49.84-7.55 49.84-11.2L49.84-11.2Q49.84-15.9 50.59-18.75 51.34-21.6 52.59-23.05 53.84-24.5 55.44-25 57.04-25.5 58.69-25.5L58.69-25.5Q61.84-25.5 63.44-23.5 65.04-21.5 65.04-17.45L65.04-17.45Q65.04-15.8 64.92-14.05 64.79-12.3 64.44-10.95L64.44-10.95Q62.74-10.6 60.64-10.45 58.54-10.3 56.64-10.23 54.74-10.15 53.52-10.15 52.29-10.15 52.29-10.15L52.29-10.15 52.34-13.45Q52.34-13.45 53.29-13.43 54.24-13.4 55.62-13.43 56.99-13.45 58.42-13.58 59.84-13.7 60.84-14L60.84-14Q60.99-14.7 61.04-15.5 61.09-16.3 61.09-17L61.09-17Q61.04-19.7 60.47-20.83 59.89-21.95 58.24-21.95L58.24-21.95Q57.39-21.95 56.62-21.48 55.84-21 55.24-19.83 54.64-18.65 54.32-16.6 53.99-14.55 53.99-11.35L53.99-11.35Q53.99-9 54.27-7.45 54.54-5.9 55.12-5.05 55.69-4.2 56.57-3.83 57.44-3.45 58.69-3.45L58.69-3.45Q60.19-3.45 61.67-3.85 63.14-4.25 64.34-5L64.34-5Q64.59-4.4 64.67-3.63 64.74-2.85 64.74-2.25L64.74-2.25Q64.74-1.5 63.79-0.85 62.84-0.2 61.27 0.15 59.69 0.5 57.79 0.5ZM74.79 0L68.54 0 68.54-34.05Q68.54-34.5 68.81-34.75 69.09-35 69.89-35L69.89-35 74.74-35Q77.19-35 79.04-34.25 80.89-33.5 82.09-31.73 83.29-29.95 83.92-26.9 84.54-23.85 84.54-19.3L84.54-19.3Q84.54-13.8 83.89-10.08 83.24-6.35 81.97-4.15 80.69-1.95 78.89-0.98 77.09 0 74.79 0L74.79 0ZM72.59-31.25L72.59-3.85 74.84-3.85Q75.84-3.85 76.74-4.4 77.64-4.95 78.37-6.58 79.09-8.2 79.52-11.35 79.94-14.5 79.94-19.7L79.94-19.7Q79.94-23.15 79.62-25.4 79.29-27.65 78.67-28.95 78.04-30.25 77.09-30.75 76.14-31.25 74.89-31.25L74.89-31.25 72.59-31.25ZM87.99 0L87.99 0 87.99-23.15Q87.99-24.1 88.34-24.48 88.69-24.85 89.59-24.93 90.49-25 92.14-25L92.14-25 92.14-0.8Q92.14-0.4 91.96-0.25 91.79-0.1 90.94-0.05 90.09 0 87.99 0ZM89.94-28.45L89.94-28.45Q88.99-28.5 88.44-29.18 87.89-29.85 87.89-31.6L87.89-31.6Q87.94-32.95 88.49-33.77 89.04-34.6 90.24-34.6L90.24-34.6Q91.39-34.6 91.84-33.95 92.29-33.3 92.24-31.7L92.24-31.7Q92.24-30.2 91.66-29.33 91.09-28.45 89.94-28.45ZM102.23 0.3L102.23 0.3Q101.48 0.3 101.11-0.4 100.73-1.1 100.44-2.15L100.44-2.15 95.34-23.75Q95.23-24.4 95.39-24.65 95.53-24.9 96.48-24.95 97.44-25 99.69-25L99.69-25 101.28-17Q101.64-15.05 102.01-12.85 102.39-10.65 102.66-8.72 102.94-6.8 103.09-5.58 103.23-4.35 103.23-4.35L103.23-4.35 103.34-4.35Q103.34-4.35 103.48-5.58 103.64-6.8 103.89-8.72 104.14-10.65 104.48-12.85 104.84-15.05 105.23-17L105.23-17 106.59-24.1Q106.69-24.55 106.86-24.73 107.03-24.9 107.91-24.95 108.78-25 110.84-25L110.84-25 105.09 0.15Q104.53 0.25 103.64 0.28 102.73 0.3 102.23 0.3ZM120.23 0.5L120.23 0.5Q118.53 0.5 117.06 0.03 115.58-0.45 114.51-1.7 113.43-2.95 112.86-5.25 112.28-7.55 112.28-11.2L112.28-11.2Q112.28-15.9 113.03-18.75 113.78-21.6 115.03-23.05 116.28-24.5 117.88-25 119.48-25.5 121.13-25.5L121.13-25.5Q124.28-25.5 125.88-23.5 127.48-21.5 127.48-17.45L127.48-17.45Q127.48-15.8 127.36-14.05 127.23-12.3 126.88-10.95L126.88-10.95Q125.18-10.6 123.08-10.45 120.98-10.3 119.08-10.23 117.18-10.15 115.96-10.15 114.73-10.15 114.73-10.15L114.73-10.15 114.78-13.45Q114.78-13.45 115.73-13.43 116.68-13.4 118.06-13.43 119.43-13.45 120.86-13.58 122.28-13.7 123.28-14L123.28-14Q123.43-14.7 123.48-15.5 123.53-16.3 123.53-17L123.53-17Q123.48-19.7 122.91-20.83 122.33-21.95 120.68-21.95L120.68-21.95Q119.83-21.95 119.06-21.48 118.28-21 117.68-19.83 117.08-18.65 116.76-16.6 116.43-14.55 116.43-11.35L116.43-11.35Q116.43-9 116.71-7.45 116.98-5.9 117.56-5.05 118.13-4.2 119.01-3.83 119.88-3.45 121.13-3.45L121.13-3.45Q122.63-3.45 124.11-3.85 125.58-4.25 126.78-5L126.78-5Q127.03-4.4 127.11-3.63 127.18-2.85 127.18-2.25L127.18-2.25Q127.18-1.5 126.23-0.85 125.28-0.2 123.71 0.15 122.13 0.5 120.23 0.5Z" opacity="1" transform="matrix(1,0,0,1,0,0)" fill="#ffffff" class="wordmark-text-0" data-fill-palette-color="primary" id="text-0"></path></svg></g></svg></g><g transform="matrix(1,0,0,1,0,138.51311790071827)"><svg viewBox="0 0 395.52 23.78573433460544" height="23.78573433460544" width="395.52"><g transform="matrix(1,0,0,1,0,0)"><svg width="395.52" viewBox="3.25 -37.7 793.18 47.71" height="23.78573433460544" data-palette-color="#8bc53f"><path d="M27.25-7.01L27.25 0 3.25 0 3.25-35.01 27.25-35.01 27.25-28 10.25-28 10.25-21 21.75-21 21.75-13.99 10.25-13.99 10.25-7.01 27.25-7.01ZM44.85 0L38.16 0 28.2-26.15 35.79-26.15 41.5-9.84 47.19-26.15 54.81-26.15 44.85 0ZM81.9-26.1L81.9 0 80.29 0 77.7-3.59Q76.75-2.73 75.69-1.99 74.63-1.25 73.46-0.7 72.29-0.15 71.05 0.17 69.82 0.49 68.55 0.49L68.55 0.49Q65.79 0.49 63.36-0.44 60.93-1.37 59.11-3.14 57.29-4.91 56.25-7.47 55.2-10.03 55.2-13.31L55.2-13.31Q55.2-16.36 56.25-18.91 57.29-21.46 59.11-23.29 60.93-25.12 63.36-26.14 65.79-27.15 68.55-27.15L68.55-27.15Q69.82-27.15 71.06-26.83 72.31-26.51 73.48-25.95 74.65-25.39 75.72-24.63 76.78-23.88 77.7-23L77.7-23 80.29-26.1 81.9-26.1ZM75.19-13.31L75.19-13.31Q75.19-14.67 74.67-15.95 74.14-17.24 73.24-18.23 72.33-19.21 71.13-19.81 69.92-20.41 68.55-20.41L68.55-20.41Q67.18-20.41 65.97-19.95 64.77-19.48 63.87-18.58 62.98-17.68 62.47-16.35 61.96-15.01 61.96-13.31L61.96-13.31Q61.96-11.6 62.47-10.27 62.98-8.94 63.87-8.03 64.77-7.13 65.97-6.67 67.18-6.2 68.55-6.2L68.55-6.2Q69.92-6.2 71.13-6.8 72.33-7.4 73.24-8.39 74.14-9.38 74.67-10.66 75.19-11.94 75.19-13.31ZM93.69-36.55L93.69 0 86.98 0 86.98-36.55 93.69-36.55ZM120.18 0L117.98-3.05Q117.18-2.32 116.26-1.67 115.35-1.03 114.35-0.55 113.34-0.07 112.28 0.21 111.22 0.49 110.12 0.49L110.12 0.49Q107.7 0.49 105.58-0.37 103.46-1.22 101.86-2.8 100.26-4.37 99.34-6.63 98.43-8.89 98.43-11.69L98.43-11.69 98.43-26.15 105.07-26.15 105.07-11.69Q105.07-10.38 105.47-9.34 105.87-8.3 106.56-7.59 107.24-6.88 108.16-6.52 109.07-6.15 110.12-6.15L110.12-6.15Q111.15-6.15 112.06-6.63 112.98-7.1 113.66-7.89 114.35-8.67 114.74-9.66 115.13-10.64 115.13-11.69L115.13-11.69 115.13-26.15 121.79-26.15 121.79 0 120.18 0ZM152.18-26.1L152.18 0 150.57 0 147.99-3.59Q147.03-2.73 145.97-1.99 144.91-1.25 143.74-0.7 142.57-0.15 141.33 0.17 140.1 0.49 138.83 0.49L138.83 0.49Q136.07 0.49 133.64-0.44 131.21-1.37 129.39-3.14 127.58-4.91 126.53-7.47 125.48-10.03 125.48-13.31L125.48-13.31Q125.48-16.36 126.53-18.91 127.58-21.46 129.39-23.29 131.21-25.12 133.64-26.14 136.07-27.15 138.83-27.15L138.83-27.15Q140.1-27.15 141.34-26.83 142.59-26.51 143.76-25.95 144.93-25.39 146-24.63 147.06-23.88 147.99-23L147.99-23 150.57-26.1 152.18-26.1ZM145.47-13.31L145.47-13.31Q145.47-14.67 144.95-15.95 144.42-17.24 143.52-18.23 142.61-19.21 141.41-19.81 140.2-20.41 138.83-20.41L138.83-20.41Q137.46-20.41 136.25-19.95 135.05-19.48 134.15-18.58 133.26-17.68 132.75-16.35 132.24-15.01 132.24-13.31L132.24-13.31Q132.24-11.6 132.75-10.27 133.26-8.94 134.15-8.03 135.05-7.13 136.25-6.67 137.46-6.2 138.83-6.2L138.83-6.2Q140.2-6.2 141.41-6.8 142.61-7.4 143.52-8.39 144.42-9.38 144.95-10.66 145.47-11.94 145.47-13.31ZM175.42 0L170.37 0Q167.95 0 165.83-0.92 163.71-1.83 162.11-3.43 160.51-5.03 159.59-7.15 158.68-9.28 158.68-11.69L158.68-11.69 158.68-19.46 155.43-19.46 155.43-26.1 158.68-26.1 158.68-36.55 165.32-36.55 165.32-26.1 175.42-26.1 175.42-19.46 165.32-19.46 165.32-11.69Q165.32-10.64 165.71-9.73 166.1-8.81 166.78-8.13 167.47-7.45 168.39-7.04 169.32-6.64 170.37-6.64L170.37-6.64 175.42-6.64 175.42 0ZM187.02-33.25L187.02-33.25Q187.02-32.32 186.66-31.52 186.31-30.71 185.7-30.11 185.09-29.52 184.27-29.16 183.45-28.81 182.53-28.81L182.53-28.81Q181.6-28.81 180.78-29.16 179.96-29.52 179.36-30.11 178.77-30.71 178.41-31.52 178.06-32.32 178.06-33.25L178.06-33.25Q178.06-34.16 178.41-34.97 178.77-35.79 179.36-36.39 179.96-36.99 180.78-37.34 181.6-37.7 182.53-37.7L182.53-37.7Q183.45-37.7 184.27-37.34 185.09-36.99 185.7-36.39 186.31-35.79 186.66-34.97 187.02-34.16 187.02-33.25ZM185.87-26.15L185.87 0 179.16 0 179.16-26.15 185.87-26.15ZM197.61-14.94L197.61 0 190.95 0 190.95-26.15 192.56-26.15 194.76-23.61Q196.37-25.07 198.41-25.87 200.44-26.66 202.67-26.66L202.67-26.66Q205.06-26.66 207.18-25.74 209.31-24.83 210.89-23.23 212.48-21.63 213.4-19.49 214.31-17.36 214.31-14.94L214.31-14.94 214.31 0 207.65 0 207.65-14.94Q207.65-15.97 207.26-16.88 206.86-17.8 206.18-18.48 205.5-19.17 204.59-19.56 203.69-19.95 202.67-19.95L202.67-19.95Q201.62-19.95 200.69-19.56 199.76-19.17 199.08-18.48 198.39-17.8 198-16.88 197.61-15.97 197.61-14.94L197.61-14.94ZM237.65-13.31L237.65-13.31Q237.65-14.67 237.12-15.95 236.6-17.24 235.7-18.23 234.79-19.21 233.58-19.81 232.37-20.41 231.01-20.41L231.01-20.41Q229.64-20.41 228.43-19.95 227.22-19.48 226.33-18.58 225.44-17.68 224.93-16.35 224.42-15.01 224.42-13.31L224.42-13.31Q224.42-11.67 224.93-10.36 225.44-9.06 226.33-8.13 227.22-7.2 228.43-6.7 229.64-6.2 231.01-6.2L231.01-6.2Q232.37-6.2 233.58-6.8 234.79-7.4 235.7-8.39 236.6-9.38 237.12-10.66 237.65-11.94 237.65-13.31ZM244.36-26.1L244.36-3.3Q244.36-0.54 243.31 1.88 242.26 4.3 240.44 6.1 238.62 7.91 236.2 8.96 233.77 10.01 231.01 10.01L231.01 10.01 227.66 9.96 227.66 3.3 230.96 3.34Q232.52 3.34 233.62 2.94 234.72 2.54 235.48 1.84 236.23 1.15 236.68 0.24 237.14-0.66 237.4-1.66L237.4-1.66Q237.01-1.03 236.28-0.62 235.55-0.22 234.66 0.04 233.77 0.29 232.8 0.39 231.84 0.49 231.01 0.49L231.01 0.49Q228.25 0.49 225.82-0.46 223.39-1.42 221.57-3.19 219.75-4.96 218.7-7.52 217.65-10.08 217.65-13.31L217.65-13.31Q217.65-16.26 218.7-18.8 219.75-21.34 221.57-23.19 223.39-25.05 225.82-26.1 228.25-27.15 231.01-27.15L231.01-27.15Q232.28-27.15 233.52-26.83 234.77-26.51 235.94-25.95 237.11-25.39 238.17-24.63 239.24-23.88 240.16-23L240.16-23 242.75-26.1 244.36-26.1ZM278.83-28L278.83 0 271.85 0 271.85-28 261.33-28 261.33-35.01 289.33-35.01 289.33-28 278.83-28ZM313.54-26.1L313.54 0 311.93 0 309.35-3.59Q308.39-2.73 307.33-1.99 306.27-1.25 305.1-0.7 303.93-0.15 302.69 0.17 301.46 0.49 300.19 0.49L300.19 0.49Q297.43 0.49 295-0.44 292.57-1.37 290.75-3.14 288.93-4.91 287.89-7.47 286.84-10.03 286.84-13.31L286.84-13.31Q286.84-16.36 287.89-18.91 288.93-21.46 290.75-23.29 292.57-25.12 295-26.14 297.43-27.15 300.19-27.15L300.19-27.15Q301.46-27.15 302.7-26.83 303.95-26.51 305.12-25.95 306.29-25.39 307.36-24.63 308.42-23.88 309.35-23L309.35-23 311.93-26.1 313.54-26.1ZM306.83-13.31L306.83-13.31Q306.83-14.67 306.31-15.95 305.78-17.24 304.88-18.23 303.97-19.21 302.77-19.81 301.56-20.41 300.19-20.41L300.19-20.41Q298.82-20.41 297.61-19.95 296.41-19.48 295.51-18.58 294.62-17.68 294.11-16.35 293.6-15.01 293.6-13.31L293.6-13.31Q293.6-11.6 294.11-10.27 294.62-8.94 295.51-8.03 296.41-7.13 297.61-6.67 298.82-6.2 300.19-6.2L300.19-6.2Q301.56-6.2 302.77-6.8 303.97-7.4 304.88-8.39 305.78-9.38 306.31-10.66 306.83-11.94 306.83-13.31ZM332.98 0L332.98 0 317.74 0 317.74-6.64 332.98-6.64Q333.66-6.64 334.15-7.13 334.64-7.62 334.64-8.3L334.64-8.3Q334.64-9.01 334.15-9.23 333.66-9.45 332.98-9.45L332.98-9.45 326.04-9.45Q324.31-9.45 322.79-10.11 321.28-10.77 320.16-11.9 319.03-13.04 318.39-14.55 317.74-16.06 317.74-17.8L317.74-17.8Q317.74-19.53 318.39-21.04 319.03-22.56 320.16-23.68 321.28-24.8 322.79-25.45 324.31-26.1 326.04-26.1L326.04-26.1 339.54-26.1 339.54-19.46 326.04-19.46Q325.36-19.46 324.87-18.97 324.38-18.48 324.38-17.8L324.38-17.8Q324.38-17.09 324.87-16.59 325.36-16.09 326.04-16.09L326.04-16.09 332.98-16.09Q334.68-16.09 336.2-15.52 337.71-14.94 338.83-13.92 339.96-12.89 340.62-11.45 341.28-10.01 341.28-8.3L341.28-8.3Q341.28-6.57 340.62-5.07 339.96-3.56 338.83-2.43 337.71-1.29 336.2-0.65 334.68 0 332.98 0ZM362.98 0L357.92 0Q355.51 0 353.38-0.92 351.26-1.83 349.66-3.43 348.06-5.03 347.15-7.15 346.23-9.28 346.23-11.69L346.23-11.69 346.23-19.46 342.98-19.46 342.98-26.1 346.23-26.1 346.23-36.55 352.87-36.55 352.87-26.1 362.98-26.1 362.98-19.46 352.87-19.46 352.87-11.69Q352.87-10.64 353.26-9.73 353.65-8.81 354.34-8.13 355.02-7.45 355.95-7.04 356.87-6.64 357.92-6.64L357.92-6.64 362.98-6.64 362.98 0ZM389.61-21.46L377.11-6.4Q377.5-6.27 377.89-6.24 378.28-6.2 378.67-6.2L378.67-6.2Q379.65-6.2 380.55-6.47 381.46-6.74 382.25-7.24 383.04-7.74 383.67-8.46 384.29-9.18 384.68-10.06L384.68-10.06 389.56-5.15Q388.63-3.83 387.43-2.78 386.22-1.73 384.81-1 383.41-0.27 381.86 0.11 380.31 0.49 378.67 0.49L378.67 0.49Q375.91 0.49 373.49-0.54 371.06-1.56 369.24-3.39 367.42-5.22 366.37-7.75 365.32-10.28 365.32-13.31L365.32-13.31Q365.32-16.41 366.37-18.97 367.42-21.53 369.24-23.34 371.06-25.15 373.49-26.15 375.91-27.15 378.67-27.15L378.67-27.15Q380.31-27.15 381.87-26.76 383.43-26.37 384.84-25.63 386.24-24.9 387.46-23.84 388.68-22.78 389.61-21.46L389.61-21.46ZM372.77-9.84L380.53-20.14Q380.07-20.31 379.61-20.36 379.16-20.41 378.67-20.41L378.67-20.41Q377.31-20.41 376.1-19.91 374.89-19.41 374-18.48 373.11-17.55 372.59-16.25 372.08-14.94 372.08-13.31L372.08-13.31Q372.08-12.94 372.12-12.48 372.15-12.01 372.24-11.54 372.33-11.06 372.45-10.62 372.57-10.18 372.77-9.84L372.77-9.84ZM401.16-2.49L401.16-2.49Q401.16-1.42 400.95-0.18 400.74 1.05 400.29 2.26 399.84 3.47 399.12 4.55 398.4 5.64 397.37 6.4L397.37 6.4 394.71 4.54Q395.39 3.76 395.74 3.06 396.08 2.37 396.27 1.66L396.27 1.66Q395.54 1.51 394.91 1.15 394.27 0.78 393.81 0.23 393.34-0.32 393.08-1.01 392.81-1.71 392.81-2.49L392.81-2.49Q392.81-3.34 393.14-4.1 393.47-4.86 394.04-5.42 394.61-5.98 395.36-6.31 396.1-6.64 396.96-6.64L396.96-6.64Q397.84-6.64 398.61-6.31 399.37-5.98 399.95-5.42 400.52-4.86 400.84-4.1 401.16-3.34 401.16-2.49ZM418.8-24.51L418.8-24.51Q418.8-26.68 419.63-28.59 420.46-30.49 421.89-31.92 423.32-33.35 425.22-34.18 427.13-35.01 429.3-35.01L429.3-35.01 445.37-35.01 445.37-28 429.3-28Q428.57-28 427.93-27.73 427.3-27.47 426.82-26.99 426.35-26.51 426.08-25.88 425.81-25.24 425.81-24.51L425.81-24.51Q425.81-23.78 426.08-23.13 426.35-22.49 426.82-22.01 427.3-21.53 427.93-21.26 428.57-21 429.3-21L429.3-21 436.31-21Q438.48-21 440.4-20.18 442.31-19.36 443.74-17.93 445.17-16.5 445.99-14.59 446.81-12.67 446.81-10.5L446.81-10.5Q446.81-8.33 445.99-6.42 445.17-4.52 443.74-3.09 442.31-1.66 440.4-0.83 438.48 0 436.31 0L436.31 0 420.76 0 420.76-7.01 436.31-7.01Q437.04-7.01 437.67-7.28 438.31-7.54 438.79-8.02 439.26-8.5 439.53-9.13 439.8-9.77 439.8-10.5L439.8-10.5Q439.8-11.23 439.53-11.87 439.26-12.5 438.79-12.98 438.31-13.45 437.67-13.72 437.04-13.99 436.31-13.99L436.31-13.99 429.3-13.99Q427.13-13.99 425.22-14.82 423.32-15.65 421.89-17.08 420.46-18.51 419.63-20.42 418.8-22.34 418.8-24.51ZM457.35-14.94L457.35 0 450.68 0 450.68-36.55 457.35-36.55 457.35-25Q458.55-25.9 459.82-26.28 461.09-26.66 462.4-26.66L462.4-26.66Q464.82-26.66 466.94-25.74 469.07-24.83 470.64-23.23 472.22-21.63 473.13-19.49 474.05-17.36 474.05-14.94L474.05-14.94 474.05 0 467.34 0 467.34-14.94 467.38-14.94Q467.38-15.97 466.99-16.88 466.6-17.8 465.92-18.48 465.24-19.17 464.33-19.56 463.43-19.95 462.4-19.95L462.4-19.95Q461.35-19.95 460.43-19.56 459.5-19.17 458.81-18.48 458.13-17.8 457.74-16.88 457.35-15.97 457.35-14.94L457.35-14.94ZM504.1-26.1L504.1 0 502.49 0 499.9-3.59Q498.95-2.73 497.89-1.99 496.83-1.25 495.65-0.7 494.48-0.15 493.25 0.17 492.02 0.49 490.75 0.49L490.75 0.49Q487.99 0.49 485.56-0.44 483.13-1.37 481.31-3.14 479.49-4.91 478.44-7.47 477.39-10.03 477.39-13.31L477.39-13.31Q477.39-16.36 478.44-18.91 479.49-21.46 481.31-23.29 483.13-25.12 485.56-26.14 487.99-27.15 490.75-27.15L490.75-27.15Q492.02-27.15 493.26-26.83 494.51-26.51 495.68-25.95 496.85-25.39 497.91-24.63 498.97-23.88 499.9-23L499.9-23 502.49-26.1 504.1-26.1ZM497.39-13.31L497.39-13.31Q497.39-14.67 496.86-15.95 496.34-17.24 495.43-18.23 494.53-19.21 493.32-19.81 492.11-20.41 490.75-20.41L490.75-20.41Q489.38-20.41 488.17-19.95 486.96-19.48 486.07-18.58 485.18-17.68 484.67-16.35 484.15-15.01 484.15-13.31L484.15-13.31Q484.15-11.6 484.67-10.27 485.18-8.94 486.07-8.03 486.96-7.13 488.17-6.67 489.38-6.2 490.75-6.2L490.75-6.2Q492.11-6.2 493.32-6.8 494.53-7.4 495.43-8.39 496.34-9.38 496.86-10.66 497.39-11.94 497.39-13.31ZM515.84-14.4L515.84 0 509.18 0 509.18-26.15 510.79-26.15 512.98-23.05Q514.6-24.51 516.65-25.31 518.7-26.1 520.89-26.1L520.89-26.1 526.78-26.1 526.78-19.46 520.89-19.46Q519.84-19.46 518.92-19.07 517.99-18.68 517.31-17.99 516.62-17.31 516.23-16.38 515.84-15.45 515.84-14.4L515.84-14.4ZM537.74-33.25L537.74-33.25Q537.74-32.32 537.38-31.52 537.03-30.71 536.42-30.11 535.81-29.52 534.99-29.16 534.17-28.81 533.25-28.81L533.25-28.81Q532.32-28.81 531.5-29.16 530.68-29.52 530.08-30.11 529.49-30.71 529.13-31.52 528.78-32.32 528.78-33.25L528.78-33.25Q528.78-34.16 529.13-34.97 529.49-35.79 530.08-36.39 530.68-36.99 531.5-37.34 532.32-37.7 533.25-37.7L533.25-37.7Q534.17-37.7 534.99-37.34 535.81-36.99 536.42-36.39 537.03-35.79 537.38-34.97 537.74-34.16 537.74-33.25ZM536.59-26.15L536.59 0 529.88 0 529.88-26.15 536.59-26.15ZM548.33-14.94L548.33 0 541.67 0 541.67-26.15 543.28-26.15 545.47-23.61Q547.09-25.07 549.12-25.87 551.16-26.66 553.38-26.66L553.38-26.66Q555.78-26.66 557.9-25.74 560.03-24.83 561.61-23.23 563.2-21.63 564.11-19.49 565.03-17.36 565.03-14.94L565.03-14.94 565.03 0 558.37 0 558.37-14.94Q558.37-15.97 557.97-16.88 557.58-17.8 556.9-18.48 556.22-19.17 555.31-19.56 554.41-19.95 553.38-19.95L553.38-19.95Q552.34-19.95 551.41-19.56 550.48-19.17 549.8-18.48 549.11-17.8 548.72-16.88 548.33-15.97 548.33-14.94L548.33-14.94ZM588.37-13.31L588.37-13.31Q588.37-14.67 587.84-15.95 587.32-17.24 586.41-18.23 585.51-19.21 584.3-19.81 583.09-20.41 581.73-20.41L581.73-20.41Q580.36-20.41 579.15-19.95 577.94-19.48 577.05-18.58 576.16-17.68 575.65-16.35 575.14-15.01 575.14-13.31L575.14-13.31Q575.14-11.67 575.65-10.36 576.16-9.06 577.05-8.13 577.94-7.2 579.15-6.7 580.36-6.2 581.73-6.2L581.73-6.2Q583.09-6.2 584.3-6.8 585.51-7.4 586.41-8.39 587.32-9.38 587.84-10.66 588.37-11.94 588.37-13.31ZM595.08-26.1L595.08-3.3Q595.08-0.54 594.03 1.88 592.98 4.3 591.16 6.1 589.34 7.91 586.92 8.96 584.49 10.01 581.73 10.01L581.73 10.01 578.38 9.96 578.38 3.3 581.68 3.34Q583.24 3.34 584.34 2.94 585.44 2.54 586.19 1.84 586.95 1.15 587.4 0.24 587.86-0.66 588.12-1.66L588.12-1.66Q587.73-1.03 587-0.62 586.27-0.22 585.38 0.04 584.49 0.29 583.52 0.39 582.56 0.49 581.73 0.49L581.73 0.49Q578.97 0.49 576.54-0.46 574.11-1.42 572.29-3.19 570.47-4.96 569.42-7.52 568.37-10.08 568.37-13.31L568.37-13.31Q568.37-16.26 569.42-18.8 570.47-21.34 572.29-23.19 574.11-25.05 576.54-26.1 578.97-27.15 581.73-27.15L581.73-27.15Q583-27.15 584.24-26.83 585.49-26.51 586.66-25.95 587.83-25.39 588.89-24.63 589.95-23.88 590.88-23L590.88-23 593.47-26.1 595.08-26.1ZM621.86-35.01L621.86 0 614.85 0 614.85-35.01 621.86-35.01ZM634.31-14.94L634.31 0 627.64 0 627.64-26.15 629.25-26.15 631.45-23.61Q633.06-25.07 635.1-25.87 637.14-26.66 639.36-26.66L639.36-26.66Q641.75-26.66 643.88-25.74 646-24.83 647.59-23.23 649.18-21.63 650.09-19.49 651.01-17.36 651.01-14.94L651.01-14.94 651.01 0 644.34 0 644.34-14.94Q644.34-15.97 643.95-16.88 643.56-17.8 642.88-18.48 642.19-19.17 641.29-19.56 640.39-19.95 639.36-19.95L639.36-19.95Q638.31-19.95 637.38-19.56 636.46-19.17 635.77-18.48 635.09-17.8 634.7-16.88 634.31-15.97 634.31-14.94L634.31-14.94ZM670.1 0L670.1 0 654.86 0 654.86-6.64 670.1-6.64Q670.78-6.64 671.27-7.13 671.76-7.62 671.76-8.3L671.76-8.3Q671.76-9.01 671.27-9.23 670.78-9.45 670.1-9.45L670.1-9.45 663.16-9.45Q661.43-9.45 659.92-10.11 658.4-10.77 657.28-11.9 656.16-13.04 655.51-14.55 654.86-16.06 654.86-17.8L654.86-17.8Q654.86-19.53 655.51-21.04 656.16-22.56 657.28-23.68 658.4-24.8 659.92-25.45 661.43-26.1 663.16-26.1L663.16-26.1 676.66-26.1 676.66-19.46 663.16-19.46Q662.48-19.46 661.99-18.97 661.5-18.48 661.5-17.8L661.5-17.8Q661.5-17.09 661.99-16.59 662.48-16.09 663.16-16.09L663.16-16.09 670.1-16.09Q671.8-16.09 673.32-15.52 674.83-14.94 675.96-13.92 677.08-12.89 677.74-11.45 678.4-10.01 678.4-8.3L678.4-8.3Q678.4-6.57 677.74-5.07 677.08-3.56 675.96-2.43 674.83-1.29 673.32-0.65 671.8 0 670.1 0ZM689.8-33.25L689.8-33.25Q689.8-32.32 689.44-31.52 689.09-30.71 688.48-30.11 687.87-29.52 687.05-29.16 686.23-28.81 685.3-28.81L685.3-28.81Q684.38-28.81 683.56-29.16 682.74-29.52 682.14-30.11 681.54-30.71 681.19-31.52 680.84-32.32 680.84-33.25L680.84-33.25Q680.84-34.16 681.19-34.97 681.54-35.79 682.14-36.39 682.74-36.99 683.56-37.34 684.38-37.7 685.3-37.7L685.3-37.7Q686.23-37.7 687.05-37.34 687.87-36.99 688.48-36.39 689.09-35.79 689.44-34.97 689.8-34.16 689.8-33.25ZM688.65-26.15L688.65 0 681.93 0 681.93-26.15 688.65-26.15ZM712.33-13.31L712.33-13.31Q712.33-14.67 711.8-15.95 711.28-17.24 710.37-18.23 709.47-19.21 708.26-19.81 707.05-20.41 705.69-20.41L705.69-20.41Q704.32-20.41 703.11-19.95 701.9-19.48 701.01-18.58 700.12-17.68 699.61-16.35 699.09-15.01 699.09-13.31L699.09-13.31Q699.09-11.67 699.61-10.36 700.12-9.06 701.01-8.13 701.9-7.2 703.11-6.7 704.32-6.2 705.69-6.2L705.69-6.2Q707.05-6.2 708.26-6.8 709.47-7.4 710.37-8.39 711.28-9.38 711.8-10.66 712.33-11.94 712.33-13.31ZM719.04-26.1L719.04-3.3Q719.04-0.54 717.99 1.88 716.94 4.3 715.12 6.1 713.3 7.91 710.87 8.96 708.45 10.01 705.69 10.01L705.69 10.01 702.34 9.96 702.34 3.3 705.64 3.34Q707.2 3.34 708.3 2.94 709.4 2.54 710.15 1.84 710.91 1.15 711.36 0.24 711.81-0.66 712.08-1.66L712.08-1.66Q711.69-1.03 710.96-0.62 710.23-0.22 709.34 0.04 708.45 0.29 707.48 0.39 706.52 0.49 705.69 0.49L705.69 0.49Q702.93 0.49 700.5-0.46 698.07-1.42 696.25-3.19 694.43-4.96 693.38-7.52 692.33-10.08 692.33-13.31L692.33-13.31Q692.33-16.26 693.38-18.8 694.43-21.34 696.25-23.19 698.07-25.05 700.5-26.1 702.93-27.15 705.69-27.15L705.69-27.15Q706.96-27.15 708.2-26.83 709.45-26.51 710.62-25.95 711.79-25.39 712.85-24.63 713.91-23.88 714.84-23L714.84-23 717.43-26.1 719.04-26.1ZM730.78-14.94L730.78 0 724.12 0 724.12-36.55 730.78-36.55 730.78-25Q731.98-25.9 733.25-26.28 734.52-26.66 735.84-26.66L735.84-26.66Q738.25-26.66 740.38-25.74 742.5-24.83 744.08-23.23 745.65-21.63 746.57-19.49 747.48-17.36 747.48-14.94L747.48-14.94 747.48 0 740.77 0 740.77-14.94 740.82-14.94Q740.82-15.97 740.43-16.88 740.03-17.8 739.35-18.48 738.67-19.17 737.76-19.56 736.86-19.95 735.84-19.95L735.84-19.95Q734.79-19.95 733.86-19.56 732.93-19.17 732.25-18.48 731.56-17.8 731.17-16.88 730.78-15.97 730.78-14.94L730.78-14.94ZM770.04 0L764.98 0Q762.57 0 760.44-0.92 758.32-1.83 756.72-3.43 755.12-5.03 754.2-7.15 753.29-9.28 753.29-11.69L753.29-11.69 753.29-19.46 750.04-19.46 750.04-26.1 753.29-26.1 753.29-36.55 759.93-36.55 759.93-26.1 770.04-26.1 770.04-19.46 759.93-19.46 759.93-11.69Q759.93-10.64 760.32-9.73 760.71-8.81 761.39-8.13 762.08-7.45 763.01-7.04 763.93-6.64 764.98-6.64L764.98-6.64 770.04-6.64 770.04 0ZM788.13 0L788.13 0 772.89 0 772.89-6.64 788.13-6.64Q788.81-6.64 789.3-7.13 789.79-7.62 789.79-8.3L789.79-8.3Q789.79-9.01 789.3-9.23 788.81-9.45 788.13-9.45L788.13-9.45 781.19-9.45Q779.46-9.45 777.94-10.11 776.43-10.77 775.31-11.9 774.19-13.04 773.54-14.55 772.89-16.06 772.89-17.8L772.89-17.8Q772.89-19.53 773.54-21.04 774.19-22.56 775.31-23.68 776.43-24.8 777.94-25.45 779.46-26.1 781.19-26.1L781.19-26.1 794.69-26.1 794.69-19.46 781.19-19.46Q780.51-19.46 780.02-18.97 779.53-18.48 779.53-17.8L779.53-17.8Q779.53-17.09 780.02-16.59 780.51-16.09 781.19-16.09L781.19-16.09 788.13-16.09Q789.83-16.09 791.35-15.52 792.86-14.94 793.98-13.92 795.11-12.89 795.77-11.45 796.43-10.01 796.43-8.3L796.43-8.3Q796.43-6.57 795.77-5.07 795.11-3.56 793.98-2.43 792.86-1.29 791.35-0.65 789.83 0 788.13 0Z" opacity="1" transform="matrix(1,0,0,1,0,0)" fill="#ffffff" class="slogan-text-1" data-fill-palette-color="secondary" id="text-1"></path></svg></g></svg></g></svg></g></svg></g><g transform="matrix(1,0,0,1,75.54432,0)"><svg viewBox="0 0 244.43135999999998 154.91280343272726" height="154.91280343272726" width="244.43135999999998"><g><svg xmlns="http://www.w3.org/2000/svg" xmlns:xlink="http://www.w3.org/1999/xlink" version="1.1" x="8" y="0" viewBox="28 33.161 44 29.839" enable-background="new 0 0 100 100" xml:space="preserve" height="154.91280343272726" width="228.43135999999998" class="icon-icon-0" data-fill-palette-color="accent" id="icon-0"><g fill="#5d9943" data-fill-palette-color="accent"><path d="M53.228 40.092c-0.774 0.912-1.968 1.504-3.255 1.504-0.009 0-0.018-0.003-0.027-0.003 1.276-0.008 2.407-0.596 3.176-1.501 0.624-0.736 1.016-1.675 1.016-2.713 0-2.326-1.892-4.218-4.218-4.218s-4.218 1.892-4.218 4.218c0 1.048 0.398 1.996 1.033 2.735 0.462 0.537 1.061 0.94 1.733 1.195-0.713-0.255-1.363-0.658-1.825-1.195C36.185 41.698 28 50.748 28 61.642V63h44v-1.358C72 50.691 63.766 41.606 53.228 40.092zM47.702 37.378c0-1.223 0.995-2.218 2.218-2.218s2.218 0.995 2.218 2.218-0.995 2.218-2.218 2.218S47.702 38.601 47.702 37.378zM30.261 61c0.523-11 9.182-18.776 19.751-18.776S69.24 50 69.763 61H30.261z" fill="#ffffff" data-fill-palette-color="accent"></path><path d="M34.109 56.339l1.9 0.661h0.001c0.162-1 0.356-0.973 0.563-1.43 0.001-0.001 0.001-0.015 0.002-0.016 2.17-4.78 6.704-8.052 11.922-8.586C48.995 46.917 50 46.875 50 46.875v-2C43 44.875 36.406 49.497 34.109 56.339z" fill="#ffffff" data-fill-palette-color="accent"></path></g></svg></g></svg></g><g><rect width="20.033675730160212" height="10.105572730013726" y="143.80723070271353" x="319.97568" fill="#ffffff" data-fill-palette-color="accent"></rect><rect width="20.033675730160212" height="10.105572730013726" y="143.80723070271353" x="55.51064426983979" fill="#ffffff" data-fill-palette-color="accent"></rect><rect width="20.033675730160212" height="10.105572730013726" y="123.59608524268609" x="319.97568" fill="#ffffff" data-fill-palette-color="accent"></rect><rect width="20.033675730160212" height="10.105572730013726" y="123.59608524268609" x="55.51064426983979" fill="#ffffff" data-fill-palette-color="accent"></rect></g></svg></g><defs></defs></svg><rect width="284.4987114603204" height="247.2" fill="none" stroke="none" visibility="hidden"></rect></g></svg></g></svg>